<svg xmlns="http://www.w3.org/2000/svg" viewBox="0 0 760 280" role="img" aria-label="">
  <defs>
    <linearGradient id="body" x1="0" y1="0" x2="0" y2="1">
      <stop offset="0" stop-color="#fffdf8"/>
      <stop offset="0.56" stop-color="#f7fbff"/>
      <stop offset="1" stop-color="#cfe5f4"/>
    </linearGradient>
    <radialGradient id="light" cx="35%" cy="22%" r="72%">
      <stop offset="0" stop-color="#ffffff" stop-opacity="0.98"/>
      <stop offset="1" stop-color="#eef7fd" stop-opacity="0"/>
    </radialGradient>
    <filter id="soft" x="-20%" y="-30%" width="140%" height="170%">
      <feGaussianBlur in="SourceAlpha" stdDeviation="7" result="blur"/>
      <feOffset dy="12" result="offset"/>
      <feColorMatrix in="offset" values="0 0 0 0 0.16 0 0 0 0 0.43 0 0 0 0 0.64 0 0 0 .24 0" result="shadow"/>
      <feMerge>
        <feMergeNode in="shadow"/>
        <feMergeNode in="SourceGraphic"/>
      </feMerge>
    </filter>
  </defs>
  <g filter="url(#soft)">
    <path fill="url(#body)" d="M104 208c-43 0-78-27-78-60 0-31 31-57 70-60 11-42 51-72 99-72 36 0 68 17 86 44 14-9 31-14 49-14 41 0 76 26 86 62 8-3 18-5 27-5 37 0 69 22 79 53 12-6 25-9 39-9 42 0 76 26 76 59s-34 59-76 59H104z"/>
    <ellipse cx="201" cy="83" rx="73" ry="62" fill="url(#light)"/>
    <ellipse cx="333" cy="94" rx="65" ry="55" fill="url(#light)" opacity="0.88"/>
    <ellipse cx="468" cy="143" rx="55" ry="43" fill="url(#light)" opacity="0.72"/>
    <path d="M83 210c69 18 151 22 237 11 88-11 190-7 281 12" fill="none" stroke="#bcd9eb" stroke-opacity="0.36" stroke-width="7" stroke-linecap="round"/>
  </g>
</svg>